<?xml version="1.0" standalone="no"?>
<!DOCTYPE svg PUBLIC "-//W3C//DTD SVG 20010904//EN"
 "http://www.w3.org/TR/2001/REC-SVG-20010904/DTD/svg10.dtd">
<svg version="1.0" xmlns="http://www.w3.org/2000/svg"
 width="512.000000pt" height="512.000000pt" viewBox="0 0 512.000000 512.000000"
 preserveAspectRatio="xMidYMid meet">
<metadata>
Created by potrace 1.14, written by Peter Selinger 2001-2017
</metadata>
<g transform="translate(0.000000,512.000000) scale(0.100000,-0.100000)"
fill="#000000" stroke="none">
<path d="M501 5105 c-177 -39 -346 -171 -429 -335 -77 -153 -72 5 -72 -2210 0
-2214 -5 -2054 72 -2209 81 -165 254 -299 433 -336 106 -22 4005 -22 4109 0
182 38 350 168 434 335 77 153 72 -5 72 2210 0 2214 5 2054 -72 2209 -81 165
-254 299 -433 336 -102 21 -4016 21 -4114 0z m2193 -1193 c379 -80 677 -269
861 -546 107 -162 175 -333 211 -527 27 -145 25 -429 -4 -577 -85 -423 -321
-740 -691 -927 -90 -45 -244 -97 -376 -126 -97 -22 -121 -23 -747 -26 l-648
-4 0 1381 0 1381 643 -3 c623 -4 645 -4 751 -26z"/>
<path d="M1980 2564 l0 -806 248 5 c280 5 343 16 487 86 192 92 320 262 366
485 26 125 25 328 -1 454 -53 258 -221 450 -463 530 -115 38 -238 52 -462 52
l-175 0 0 -806z"/>
</g>
</svg>
