<?xml version="1.0" encoding="UTF-8"?>
<svg id="Livello_2" data-name="Livello 2" xmlns="http://www.w3.org/2000/svg" viewBox="0 0 383.22 357.09">
  <defs>
    <style>
      .cls-1 {
        fill: #4dc222;
      }

      .cls-1, .cls-2 {
        stroke-width: 0px;
      }

      .cls-2 {
        fill: #6bca44;
      }
    </style>
  </defs>
  <g id="Livello_1-2" data-name="Livello 1">
    <g>
      <path class="cls-1" d="m0,234.18c1.11-5.4,2.02-10.85,3.35-16.2,6.1-24.39,18.16-45.81,33.3-65.61,4.08-5.33,8.53-10.38,12.84-15.54,1.78-2.13,3.86-3.59,6.82-2.53,2.97,1.06,4.2,3.33,4.26,6.34.14,6.38,2.07,12.46,3.11,18.68-.46.4-1.04.71-1.37,1.2-8.21,12.05-15.35,24.69-20.95,38.17-5.77,13.86-9.12,28.34-9.81,43.28-.56,12.09,1.4,24,5.48,35.43,4.71,13.2,11.71,25.22,20.05,36.44,9.61,12.94,21.17,23.65,35.81,30.77,3.66,1.78,7.73,2.63,11.18,4.89-10.67,3.61-21.3,2.44-31.8-.57-17.38-4.98-31.06-15.58-42.33-29.3-14.14-17.21-25.01-36.17-28.85-58.54-.25-1.47.39-3.27-1.09-4.47,0-7.48,0-14.97,0-22.45Z"/>
      <path class="cls-2" d="m304.75,82.37c4.67,9.49,8.38,19.36,11.64,29.41.77,2.37.48,4.7-1.64,6.46-2.37,1.97-4.76,1.57-7.31.33-13.32-6.49-27.26-9.27-42.06-7.11-10.28,1.5-20.08,4.73-29.86,8.04-14.98,5.07-30,9.98-45.8,11.83-17.42,2.04-34.61,1.88-50.77-6.24-11.66-5.85-19.58-15.11-24.38-27.18-.86-2.16-.72-3.52,1.34-4.97,18.67-13.11,38.67-23.04,61.51-26.38,11.21-1.64,22.33-1.08,33.43,1.18-6.36-3.09-13.1-4.84-20.08-5.55-26.12-2.67-49.54,5.82-71.97,17.9-13.29,7.16-25.67,15.74-37.51,25.11-2.31,1.83-4.29,3.7-5.02,6.64-.3-.18-.43-.22-.51-.31-7.65-9.01-7.64-9.66,1.61-16.96,7.53-5.95,15.43-11.39,23.54-16.52,1.13-.72,2.5-1.17,3.13-2.53,2.63-.57,4.71-2.29,6.88-3.65,4.1-2.58,9.19-3.63,12.58-7.15,10.22-10.62,22.35-18.24,36.17-22.97,19.7-6.74,39.97-9.15,60.81-7.49,14.11,1.12,27.36,4.96,39.79,11.4,15.62,8.1,28.88,19.27,40.19,32.77,1.21,1.44,2.07,3.49,4.28,3.92Z"/>
      <path class="cls-2" d="m104.07,349.51c-3.45-2.26-7.52-3.11-11.18-4.89-14.64-7.12-26.2-17.83-35.81-30.77-8.34-11.22-15.34-23.24-20.05-36.44-4.08-11.43-6.04-23.34-5.48-35.43.69-14.95,4.05-29.43,9.81-43.28,5.61-13.47,12.74-26.12,20.95-38.17.33-.49.91-.8,1.37-1.2,6.9,20.33,22.48,33.65,37.94,47.08,14.46,12.56,27.75,26.17,37.47,42.88,7.12,12.26,12.05,25.18,11.28,39.66-.59,11.05-4.62,20.8-11.64,29.35-1.15,1.39-2.19,2.12-4.09,1.25-27.47-12.62-51.04-29.62-64.87-57.58-1.26-2.54-2.29-5.19-3.61-7.7,2.28,13.17,8.19,24.66,16.43,34.99,12.62,15.83,28.54,27.66,46.03,37.54,11.08,6.25,22.6,11.54,34.42,16.25,2.31.92,4.56,1.73,6.97,1.16.15.37.25.49.23.57-3.44,9.64-4.33,12.17-15.48,7.25-8.77-3.87-17.59-7.64-26-12.26-2.2-1.21-3.69-1.38-5.83.51-5.38,4.76-11.65,8.03-18.85,9.23Z"/>
      <path class="cls-2" d="m324.03,184.22c-1.09-10.28-3.02-20.4-5.71-30.39-1.85-6.88,1.25-10.6,8.35-10.15.69.04,1.84-.17,1.56.92-1.41,5.34,1.35,10,2.41,14.89,3.81,17.74,5.77,35.66,4.49,53.73-1.59,22.48-7.86,43.48-22.25,61.47-1.73,2.16-4.46,3.68-5.02,7.16,2.32-.23,3.59-1.81,4.99-3.01,14.54-12.5,22.7-28.74,27.37-46.99,3.57-13.95,4.99-28.17,4.54-42.55-.11-3.5.87-3.99,3.9-2.74,16.6,6.8,26.26,19.67,31.4,36.26,4.75,15.34,3.84,30.77-.62,46.01-6.22,21.24-16.29,40.42-31.97,56.24-18.03,18.19-40.68,26.81-65.57,30.3-14.62,2.05-29.29,2.26-43.98.63.28-1.8,1.72-2.62,3.01-3.6,11.87-8.93,21.01-19.92,26.45-33.95,4.79-12.35,7-25.29,9.43-38.18,3.98-21.2,9.26-41.93,20.15-60.82,5.56-9.65,11.94-18.73,21.48-24.8,4.16-2.65,6.46-5.48,5.59-10.44Z"/>
      <path class="cls-1" d="m324.03,184.22c.87,4.95-1.43,7.79-5.59,10.44-9.54,6.07-15.92,15.14-21.48,24.8-10.89,18.89-16.16,39.62-20.15,60.82-2.42,12.89-4.64,25.83-9.43,38.18-5.44,14.03-14.58,25.02-26.45,33.95-1.29.97-2.72,1.8-3.01,3.6-10.47-.33-20.7-2.37-30.9-4.56-2.43-.52-3.68-2.53-4.05-4.89-.36-2.3.78-4.08,2.57-5.46,2.96-2.27,6.04-4.41,8.9-6.8,14.46-12.11,21.22-28.39,25.06-46.29,3.48-16.24,6.1-32.69,11.87-48.37,4.4-11.96,9.83-23.36,17.73-33.44,14.05-17.93,31.91-26.44,54.94-21.98Z"/>
      <path class="cls-1" d="m304.75,82.37c-2.22-.43-3.08-2.48-4.28-3.92-11.31-13.5-24.57-24.67-40.19-32.77-12.42-6.44-25.67-10.28-39.79-11.4-20.84-1.66-41.11.75-60.81,7.49-13.83,4.73-25.95,12.34-36.17,22.97-3.39,3.52-8.48,4.57-12.58,7.15-2.17,1.37-4.25,3.08-6.88,3.65-3.13-9.59-1.64-18.97,1.85-28.03,7.13-18.53,20.76-30.99,38.86-38.01,30.79-11.93,62.07-13.26,92.96-.35,20.68,8.64,36.14,23.94,49.03,41.94,7.03,9.82,13.2,20.17,18.01,31.28Z"/>
    </g>
  </g>
</svg>