<?xml version="1.0" encoding="UTF-8"?>
<svg id="Livello_1" data-name="Livello 1" xmlns="http://www.w3.org/2000/svg" viewBox="0 0 595.28 841.89">
  <defs>
    <style>
      .cls-1 {
        fill: #32a7f9;
      }

      .cls-1, .cls-2, .cls-3, .cls-4, .cls-5, .cls-6, .cls-7, .cls-8, .cls-9, .cls-10, .cls-11, .cls-12, .cls-13, .cls-14 {
        stroke-width: 0px;
      }

      .cls-2 {
        fill: #a3e341;
      }

      .cls-3 {
        fill: #e48174;
      }

      .cls-4 {
        fill: #99d53c;
      }

      .cls-5 {
        fill: #64b8fa;
      }

      .cls-6 {
        fill: #a2e340;
      }

      .cls-7 {
        fill: #fcb0a0;
      }

      .cls-8 {
        fill: #f69f8e;
      }

      .cls-9 {
        fill: #7aa72e;
      }

      .cls-10 {
        fill: #8cc539;
      }

      .cls-11 {
        fill: #8dc638;
      }

      .cls-12 {
        fill: #fecdbf;
      }

      .cls-13 {
        fill: #98d43c;
      }

      .cls-14 {
        fill: #98d43b;
      }
    </style>
  </defs>
  <path class="cls-7" d="m406.57,486.91c4.41-3.06,8.75-6.06,14.67-4.7,5.59,1.28,9.55,4.37,11.2,9.79,1.56,5.12.94,10.12-2.82,14.31-1.83,2.03-3.78,3.95-5.68,5.93-1.65,1.3-3.19,2.99-5.28,3.37-7.46,1.36-8.28,6.26-7.46,12.61.37,2.85,1.06,2.69,3.1,1.55,9.76-5.42,19.61-10.66,29.33-16.15,5.75-3.25,12.43-5.53,14.8-12.75,6.53.84,10.61,4.76,12.22,11.74,1.31,5.65-1.25,11.86-6.92,15.26-6.72,4.03-13.68,7.64-20.55,11.41-23.01,12.63-46.08,25.17-69.02,37.91-7.64,4.24-15.68,5.2-24.16,4.49-9.15-.77-18.32-1.42-27.48-2.08-13.75-.99-27.49-1.95-41.24-2.89-8.18-.56-16.36-1.05-24.54-1.62-1.86-.13-3.25.53-4.73,1.67-14.77,11.39-29.6,22.69-44.43,34-.87.67-1.87,1.17-2.81,1.75h-5.24c-4.7-4.27-9.33-8.61-13.44-13.47,17.98-13.65,35.99-27.28,53.91-41.02,1.64-1.26,3.18-1.77,5.11-1.64,13.97.97,27.96,1.66,41.92,2.88,12.72,1.12,25.5,1.6,38.25,2.36,4.96.3,10.01.06,14.85.98,12.14,2.33,21.21-4.08,31.7-9.97-11.59,0-22.06.11-32.53-.03-9.72-.13-19.34.42-28.81,2.82-3.21.81-7.03-1.88-7.59-5.08-.46-2.59,2.25-5.96,5.48-6.6,9.13-1.81,18.34-3.04,27.67-3.06,16.71-.03,33.42,0,50.13,0,1.74,0,3.41-.08,5.1-.8,10.27-4.38,11.23-16.31,4.26-25.11-2.97-3.75-7.06-5.74-11.21-7.7,2.33-3.49,6.05-5.47,9-8.28,4.3-4.08,9.31-7.39,13.24-11.89Z"/>
  <path class="cls-5" d="m228.07,499.65c-6.5-3.95-13.1-7.75-18.8-12.88,3.7-3.82,7.43-7.62,11.1-11.46,5-5.22,10.79-7.69,18.15-5.89,3.6.88,5.81-1.72,4.7-5.24-1.32-4.2-3.52-7.93-6.47-11.21.77-1.57,1.37-3.13.54-4.91-2.28-4.89-4.68-9.7-8.6-13.55-11.29-14.75-42.21-25.48-63.21-11.84-4.19-14.18-6.18-28.66-5.51-43.43,1.02-22.53,7.34-43.5,19.04-62.81.24-.4.7-.66,1.06-.99.96-.05,1.57.59,2.28,1.1,3.63,2.6,7.19,5.32,11.36,7.09,10.73,4.58,21.8,5.34,33.13,2.97,12.76-2.67,23.14-8.79,29.61-20.55,4.72-8.59,5.58-17.86,5.29-27.45-.12-4.16-.88-7.86-3.7-11-.02-3.24-.04-6.49-.06-9.73,7.41-1.69,14.84-3.2,22.45-3.66,1.46,1.03,3.17,1.09,4.85,1.42,5.72,1.11,11.7,1.3,16.87,4.49-3.68,7.75-7.37,15.5-11.03,23.26-2.33,4.96-1.25,8.6,3.33,11.49,2.32,1.46,4.66,2.89,6.96,4.38,2.24,1.45,3.44,3.57,3.62,6.22.35,5.1.59,10.2.97,15.29.31,4.12-1.47,6.85-5.1,8.69-11.22,5.7-22.42,11.41-33.55,17.27-3.24,1.71-6.25,1.8-9.66.6-6.69-2.36-13.46-4.49-20.22-6.64-4.66-1.48-7.72-.39-10.2,3.69-4.39,7.24-8.69,14.54-13.05,21.81-1.29,2.15-1.74,4.45-.91,6.81,5.11,14.5,10.2,29.04,26.32,35.36.11.04.2.15.31.21,3.97,2.41,7.09,2.18,10.53-1,2.29-2.11,4.39-4.42,6.61-6.61,2.22-2.19,4.81-2.97,7.87-2,3.44,1.09,6.89,2.14,10.36,3.15,5.66,1.64,8.17.72,11.37-4.2,3.4-5.22,7.26-10.23,9.98-15.78,3.89-7.93,9.62-11.03,18.31-9.89,3.53.46,6.19,1.52,8.02,4.54,3.3,5.43,6.6,10.86,9.95,16.26,1.89,3.04,1.92,6.08.31,9.22-3.01,5.87-6.06,11.73-8.98,17.65-1.49,3.02-3.78,4.78-7.04,5.56-6.78,1.63-13.5,3.48-20.27,5.09-14.04,3.35-11.27,2.08-17.06,14.84-2.16,4.76-1.12,7.98,3.14,11,6.3,4.47,12.59,8.96,18.96,13.33,11.81,8.1,9.22,8.43,23.34,2.45,10.83-4.58,19.82-10.35,25.08-21.31,2.28-4.75,5.61-5.45,10.73-3.85,4.98,1.56,9.96,3.11,14.94,4.66.08.19.14.38.17.58-.29.67-.5,1.4-.88,2.02-9.26,14.97-21.26,27.39-35.58,37.52-6.97,4.93-14.21,9.53-22.42,12.27-1.94.28-3.65-.59-5.4-1.17-10.94-3.65-21.88-7.29-32.79-11.05-8.02-2.76-15.97-2.9-24.08-.31-8.96,2.86-18.01,5.43-27.03,8.13Z"/>
  <path class="cls-12" d="m228.07,499.65c9.01-2.7,18.07-5.27,27.03-8.13,8.11-2.59,16.06-2.45,24.08.31,10.9,3.75,21.85,7.39,32.79,11.05,1.75.58,3.45,1.46,5.4,1.17,6.78,2.74,13.86,3.26,21.07,2.88,4.32,0,8.63,0,12.94-.02,10.98.05,21.97.11,32.95.16,4.16,1.96,8.24,3.95,11.21,7.7,6.97,8.8,6.01,20.73-4.26,25.11-1.69.72-3.36.8-5.1.8-16.71,0-33.42-.02-50.13,0-9.33.01-18.54,1.25-27.67,3.06-3.23.64-5.94,4.01-5.48,6.6.57,3.2,4.38,5.9,7.59,5.08,9.47-2.4,19.09-2.95,28.81-2.82,10.47.14,20.94.03,32.53.03-10.49,5.89-19.56,12.3-31.7,9.97-4.83-.93-9.89-.69-14.85-.98-12.75-.76-25.53-1.25-38.25-2.36-13.96-1.23-27.95-1.91-41.92-2.88-1.93-.13-3.48.38-5.11,1.64-17.92,13.74-35.93,27.36-53.91,41.02-9.65-8.82-18.74-18.22-27.8-27.63-3.98-4.13-2.46-9.31,2.5-12.55,11.75-7.69,23.79-14.93,35.23-23.09,7.1-5.06,12.82-11.4,16.94-19.03,3.74-6.93,8.56-12.73,15.11-17.09Z"/>
  <path class="cls-11" d="m376.24,452.24c-.03-.2-.08-.4-.17-.58.81-.07,1.33-.48,1.74-1.2,5.86-10.05,10.11-20.75,13.33-31.91.57-1.98.09-3.18-1.32-4.53-7.46-7.12-10.46-16.27-10.61-26.21-.18-11.8,3.03-22.8,9.83-32.62,1.18-1.7,2.62-3.31,1.81-5.76-2.33-7.08-4.58-14.18-7.83-20.91-8.46-17.51-20.31-32.31-35.19-44.81-9.71-8.15-20.49-14.34-32.01-19.53-4.16-1.87-8.91-2.32-12.56-5.32.6-1.43,1.2-2.86,1.8-4.3,47.07,5.93,81.15,30.46,103.21,72.17.52.99,1.01,1.99,1.52,2.98,0,.48,0,.96,0,1.44-1.43,0-2.14,1.13-3.04,1.96-8.09,7.44-12.56,17-14.67,27.46-2.03,10.07-1.84,20.13,3.06,29.76,5.22,10.26,13.88,16.26,23.81,20.98-3.42,17.53-10.46,33.5-20.76,48.05-7.31-2.37-14.62-4.74-21.93-7.11Z"/>
  <path class="cls-2" d="m183.07,301.2c-3.02-1.76-5.69-3.97-8.13-6.44-2.97-3-2.23-6.43,1.82-7.15,8.24-1.45,12.66-6.68,15.26-14.11,1.19-3.39,2.53-6.74,3.93-10.05,5.36-12.7,15.46-18.62,28.74-19.77,4.58-.4,9.19-.35,13.78.08,2.11,4.78,1.34,9.86,1.51,14.84-.67,1.5-1.72,2.7-2.81,3.92-7.58,8.43-16.31,15.26-26.74,19.91-4,1.79-5.27,5.17-3.75,8.16,1.66,3.26,5.06,4.18,9.02,2.17,4.65-2.36,9.19-4.93,13.78-7.41-.8,3.29-3.51,5.04-5.94,6.81-10.74,7.82-23.07,9.59-35.95,9.06-1.5-.06-3.01-1.62-4.51-.01Z"/>
  <path class="cls-13" d="m165.48,422.67c21.01-13.63,51.92-2.9,63.21,11.84-1.52,4.38-2.75,5.15-7.18,4.09-2-.48-3.85-.44-5.86.02-3.9.89-7.05,2.79-9.9,5.59-5.22,5.15-9.74,11.16-16.14,14.9-10.19,5.97-20.76,4.52-31.29.73.54-1.03,1.42-1.68,2.38-2.3,11.43-7.35,23.97-11.24,37.51-11.88,4.46-.21,8.08-2.83,7.99-6.11-.09-3.47-4.14-6.4-8.57-5.81-5.64.75-11.32,1.2-16.87,2.56-13.02,3.18-24.64,9.11-35.01,17.56,2.52-12.96,9.29-23.24,19.73-31.2Z"/>
  <path class="cls-6" d="m418.94,411.3c-9.94-4.72-18.59-10.73-23.81-20.98-4.9-9.64-5.09-19.7-3.06-29.76,2.11-10.47,6.57-20.02,14.67-27.46.9-.83,1.61-1.95,3.04-1.96,2.94.9,4.26,2.62,3.49,5.87-1.46,6.15.16,11.54,4.59,16.05,3.84,3.91,7.88,7.64,11.59,11.66,5.02,5.45,8.03,11.75,8.12,19.42.07,6.09-1.46,11.77-3.1,17.49-3.84-3.55-6.04-8.19-8.03-12.84-3.89-9.08-6.26-18.54-6.22-28.52.01-3.44-3.03-6.56-5.92-6.59-3.62-.03-5.84,2.48-5.98,6.63-.09,2.75.4,5.43.71,8.14,1.34,11.75,4.79,22.8,10.8,32.99,2.45,4.15,5.2,8.13,7.82,12.18-3.13.12-5.79-1.54-8.68-2.31Z"/>
  <path class="cls-1" d="m258.03,267.59c2.82,3.14,3.58,6.84,3.7,11,.29,9.59-.57,18.86-5.29,27.45-6.47,11.77-16.85,17.88-29.61,20.55-11.33,2.37-22.4,1.61-33.13-2.97-4.17-1.78-7.72-4.49-11.36-7.09-.72-.51-1.32-1.15-2.28-1.1,1.58-4.3,4.8-7.55,7.3-11.25,9.66,4.05,19.5,6.03,30.14,4.67,24.14-3.1,38.28-17.21,40.52-41.26Z"/>
  <path class="cls-4" d="m434.45,401.61c1.65-5.72,3.17-11.41,3.1-17.49-.09-7.67-3.1-13.97-8.12-19.42-3.71-4.03-7.75-7.76-11.59-11.66-4.43-4.5-6.05-9.89-4.59-16.05.77-3.25-.54-4.97-3.49-5.87,0-.48,0-.96,0-1.44,3.83-2.29,7.4-5.02,11.55-6.77,1.9-.8,3.82-1.47,5.62-.02,1.8,1.45,1.55,3.33,1.1,5.44-1.33,6.22.65,11.54,5.07,15.97,3.6,3.61,7.46,6.99,10.94,10.71,8.39,8.98,10.24,19.51,6.98,31.17-2.29,8.19-5.67,15.86-10.64,22.79-2.59-1.97-4.82-4.22-5.95-7.37Z"/>
  <path class="cls-11" d="m158.32,459.85c10.53,3.79,21.1,5.23,31.29-.73,6.4-3.75,10.93-9.76,16.14-14.9,2.84-2.8,6-4.7,9.9-5.59,2.01-.46,3.86-.5,5.86-.02,4.43,1.06,5.66.29,7.18-4.09,3.92,3.85,6.32,8.66,8.6,13.55.83,1.78.23,3.34-.54,4.91-1.33.76-2.78,1.25-4.26.84-8.17-2.27-14.13,1.34-19.33,7.08-4.98,5.5-10.05,10.9-16.61,14.61-17.2,6.31-31.66-.53-45.67-9.5,1.83-2.83,4.21-5.01,7.45-6.15Z"/>
  <path class="cls-1" d="m376.24,452.24c7.31,2.37,14.62,4.74,21.93,7.11-1.85,2.63-3.71,5.25-5.56,7.88-9.62,11.25-20.57,20.99-33.01,29.04l-1.5.98.04-.03c-6.57,3.24-13.14,6.48-19.71,9.72-7.2.38-14.29-.14-21.07-2.88,8.21-2.74,15.45-7.34,22.41-12.27,14.32-10.13,26.32-22.55,35.58-37.52.38-.62.59-1.34.88-2.02Z"/>
  <path class="cls-8" d="m359.6,496.27c12.44-8.04,23.39-17.79,33.01-29.04,10.64.85,15.86,8.2,13.96,19.68-3.94,4.5-8.94,7.8-13.24,11.89-2.96,2.81-6.67,4.79-9,8.28-10.98-.05-21.97-.11-32.95-.16.06-1.23,1.15-1.82,1.69-2.73,1.45-2.51,4.38-3.93,5.08-6.97,0,0-.04.03-.03.03.72.01,1.32-.16,1.5-.98Z"/>
  <path class="cls-10" d="m258.03,267.59c-2.24,24.05-16.38,38.16-40.52,41.26-10.65,1.37-20.48-.61-30.14-4.67-1.43-.99-2.86-1.99-4.3-2.98,1.5-1.61,3.01-.05,4.51.01,12.88.53,25.21-1.25,35.95-9.06,2.43-1.77,5.14-3.52,5.94-6.81.22-.19.44-.39.66-.59.32-.2,1.41.44.83-.75,11.13-7.84,19.49-18.1,26.06-29.91.32,1.26.64,2.51.96,3.77.02,3.24.04,6.49.06,9.73Z"/>
  <path class="cls-9" d="m434.45,401.61c1.13,3.15,3.36,5.4,5.95,7.37,2.17,3.58,5.7,5.79,8.69,8.54,3.26,3,3.08,7.34-.38,9.52-2.54,1.6-4.91,1.08-7.23-.7-4.76-3.65-8.86-7.99-13.01-12.27-.28-.17-.57-.33-.85-.5,0,0-.01.04-.01.04-2.61-4.05-5.37-8.03-7.82-12.18-6.01-10.19-9.46-21.24-10.8-32.99-.31-2.71-.8-5.39-.71-8.14.14-4.15,2.37-6.67,5.98-6.63,2.9.03,5.93,3.15,5.92,6.59-.04,9.99,2.33,19.44,6.22,28.52,1.99,4.66,4.2,9.29,8.03,12.84Z"/>
  <path class="cls-9" d="m158.32,459.85c-3.23,1.14-5.61,3.32-7.45,6.15-3.53,1.62-5.43,4.93-7.86,7.68-3.13,3.53-6.06,4.27-8.98,2.02-3.01-2.32-3.03-5.61-.07-9.44,3.51-4.53,7.69-8.42,11.79-12.39,10.37-8.45,21.99-14.37,35.01-17.56,5.55-1.36,11.24-1.81,16.87-2.56,4.43-.59,8.48,2.34,8.57,5.81.09,3.29-3.54,5.9-7.99,6.11-13.54.64-26.08,4.53-37.51,11.88-.96.62-1.85,1.27-2.38,2.3Z"/>
  <path class="cls-9" d="m230.13,284.76c-.22.2-.44.39-.66.59-4.59,2.48-9.13,5.05-13.78,7.41-3.96,2.01-7.36,1.09-9.02-2.17-1.53-2.99-.26-6.37,3.75-8.16,10.43-4.65,19.15-11.48,26.74-19.91,1.09-1.21,2.14-2.42,2.81-3.92,3.83-3.91,5.87-8.9,8.24-13.69,1.59-3.37,2.73-6.91,3.85-10.46,1.25-3.96,4.29-5.81,7.53-4.79,3.37,1.06,4.66,4.04,3.63,8.12-1.43,5.69-3.99,10.93-6.21,16.31-6.57,11.82-14.93,22.07-26.06,29.91-.28.25-.55.5-.83.75Z"/>
  <path class="cls-1" d="m196.55,475.5c6.56-3.7,11.63-9.1,16.61-14.61,5.2-5.74,11.16-9.36,19.33-7.08,1.47.41,2.93-.08,4.26-.84,2.95,3.28,5.15,7.01,6.47,11.21,1.11,3.52-1.1,6.13-4.7,5.24-7.35-1.81-13.15.66-18.15,5.89-3.68,3.84-7.4,7.64-11.1,11.46-4.81-3.11-8.72-7.24-12.72-11.27Z"/>
  <path class="cls-12" d="m458.44,500.86c-2.37,7.22-9.05,9.5-14.8,12.75-9.72,5.49-19.58,10.72-29.33,16.15-2.04,1.14-2.73,1.3-3.1-1.55-.82-6.34,0-11.25,7.46-12.61,2.09-.38,3.62-2.07,5.28-3.37,3.32.79,5.63-1.66,8.33-2.71,6.78-2.65,13.18-6.2,20.08-8.56,2.01-.69,4.03-1.17,6.08-.09Z"/>
  <path class="cls-1" d="m305.06,254.55c-.6,1.43-1.2,2.86-1.8,4.3-.37.42-.74.84-1.12,1.26-5.17-3.19-11.15-3.38-16.87-4.49-1.69-.33-3.39-.39-4.85-1.42,8.23-1.14,16.44-.69,24.64.35Z"/>
  <path class="cls-11" d="m248.21,244.9c-2.36,4.8-4.4,9.78-8.24,13.69-.17-4.98.6-10.05-1.51-14.84,3.33-.27,6.51.64,9.75,1.14Z"/>
  <path class="cls-6" d="m427.63,413.57c.28.17.57.33.85.5-.28-.17-.57-.33-.85-.5Z"/>
  <path class="cls-14" d="m302.14,260.11c.37-.42.75-.84,1.12-1.26,3.65,3.01,8.41,3.45,12.56,5.32,11.51,5.19,22.3,11.38,32.01,19.53,14.89,12.5,26.73,27.3,35.19,44.81,3.25,6.73,5.5,13.84,7.83,20.91.81,2.45-.64,4.06-1.81,5.76-6.8,9.82-10.01,20.82-9.83,32.62.15,9.94,3.15,19.09,10.61,26.21,1.41,1.35,1.89,2.54,1.32,4.53-3.22,11.16-7.47,21.86-13.33,31.91-.42.72-.93,1.13-1.74,1.2-4.98-1.55-9.96-3.11-14.94-4.66-5.12-1.6-8.45-.9-10.73,3.85-5.26,10.96-14.25,16.73-25.08,21.31-14.12,5.97-11.53,5.64-23.34-2.45-6.37-4.37-12.66-8.86-18.96-13.33-4.26-3.02-5.3-6.24-3.14-11,5.8-12.75,3.02-11.49,17.06-14.84,6.78-1.62,13.5-3.47,20.27-5.09,3.26-.78,5.55-2.54,7.04-5.56,2.92-5.92,5.97-11.78,8.98-17.65,1.61-3.14,1.58-6.17-.31-9.22-3.35-5.4-6.64-10.83-9.95-16.26-1.84-3.02-4.49-4.08-8.02-4.54-8.69-1.13-14.41,1.96-18.31,9.89-2.73,5.56-6.59,10.56-9.98,15.78-3.2,4.92-5.71,5.84-11.37,4.2-3.47-1.01-6.92-2.06-10.36-3.15-3.06-.97-5.65-.19-7.87,2-2.22,2.19-4.32,4.5-6.61,6.61-3.44,3.18-6.56,3.41-10.53,1-.11-.06-.19-.17-.31-.21-16.12-6.32-21.21-20.85-26.32-35.36-.83-2.36-.38-4.66.91-6.81,4.35-7.27,8.65-14.57,13.05-21.81,2.47-4.08,5.53-5.17,10.2-3.69,6.76,2.15,13.53,4.27,20.22,6.64,3.41,1.2,6.42,1.11,9.66-.6,11.13-5.86,22.34-11.58,33.55-17.27,3.63-1.84,5.41-4.57,5.1-8.69-.38-5.09-.62-10.2-.97-15.29-.18-2.65-1.38-4.76-3.62-6.22-2.3-1.49-4.64-2.93-6.96-4.38-4.58-2.88-5.67-6.53-3.33-11.49,3.66-7.76,7.35-15.51,11.03-23.26Z"/>
  <path class="cls-3" d="m358.14,497.21c-.7,3.04-3.63,4.46-5.08,6.97-.53.92-1.62,1.51-1.69,2.73-4.31,0-8.63,0-12.94.01,6.57-3.24,13.14-6.48,19.7-9.72Z"/>
  <path class="cls-3" d="m359.6,496.27c-.18.82-.78.99-1.5.98.5-.33,1-.65,1.5-.98Z"/>
  <path class="cls-2" d="m230.13,284.76c.28-.25.55-.5.83-.75.59,1.2-.5.55-.83.75Z"/>
</svg>