<?xml version="1.0" encoding="UTF-8"?>
<svg id="Livello_2" data-name="Livello 2" xmlns="http://www.w3.org/2000/svg" xmlns:xlink="http://www.w3.org/1999/xlink" viewBox="0 0 104.28 104.27">
  <defs>
    <style>
      .cls-1 {
        fill: url(#radial-gradient-16);
      }

      .cls-1, .cls-2, .cls-3, .cls-4, .cls-5, .cls-6, .cls-7, .cls-8, .cls-9, .cls-10, .cls-11, .cls-12, .cls-13, .cls-14, .cls-15, .cls-16, .cls-17, .cls-18, .cls-19, .cls-20 {
        stroke-width: 0px;
      }

      .cls-2 {
        fill: url(#linear-gradient);
      }

      .cls-3 {
        fill: url(#radial-gradient-8);
      }

      .cls-4 {
        fill: url(#radial-gradient-13);
      }

      .cls-5 {
        fill: url(#radial-gradient-12);
      }

      .cls-6 {
        fill: url(#radial-gradient-19);
      }

      .cls-7 {
        fill: url(#radial-gradient-17);
      }

      .cls-8 {
        fill: url(#radial-gradient-2);
      }

      .cls-9 {
        fill: url(#radial-gradient-7);
      }

      .cls-10 {
        fill: url(#radial-gradient-5);
      }

      .cls-11 {
        fill: url(#radial-gradient);
      }

      .cls-12 {
        fill: url(#radial-gradient-14);
      }

      .cls-13 {
        fill: url(#radial-gradient-18);
      }

      .cls-14 {
        fill: url(#radial-gradient-10);
      }

      .cls-15 {
        fill: url(#radial-gradient-6);
      }

      .cls-16 {
        fill: url(#radial-gradient-15);
      }

      .cls-17 {
        fill: url(#radial-gradient-9);
      }

      .cls-18 {
        fill: url(#radial-gradient-3);
      }

      .cls-19 {
        fill: url(#radial-gradient-11);
      }

      .cls-20 {
        fill: url(#radial-gradient-4);
      }
    </style>
    <linearGradient id="linear-gradient" x1="1693.82" y1="-880.72" x2="1647.11" y2="-785.3" gradientTransform="translate(-546.77 1852.53) rotate(-45)" gradientUnits="userSpaceOnUse">
      <stop offset="0" stop-color="#4d5f75"/>
      <stop offset="1" stop-color="#090f14"/>
    </linearGradient>
    <radialGradient id="radial-gradient" cx="1729.38" cy="-890.26" fx="1729.38" fy="-890.26" r="104.86" gradientTransform="translate(-1671.7 913.03)" gradientUnits="userSpaceOnUse">
      <stop offset="0" stop-color="#ffe026"/>
      <stop offset="1" stop-color="#ff7503"/>
    </radialGradient>
    <radialGradient id="radial-gradient-2" cx="1729.38" cy="-890.26" fx="1729.38" fy="-890.26" r="104.87" gradientTransform="translate(-1493.41 1190.18) rotate(-9.99)" xlink:href="#radial-gradient"/>
    <radialGradient id="radial-gradient-3" cx="1729.38" cy="-890.26" fx="1729.38" fy="-890.26" r="104.86" gradientTransform="translate(-1268.4 1433.84) rotate(-19.98)" xlink:href="#radial-gradient"/>
    <radialGradient id="radial-gradient-4" cx="1729.38" cy="-890.26" fx="1729.38" fy="-890.26" r="104.87" gradientTransform="translate(-1002.65 1637.28) rotate(-29.99)" xlink:href="#radial-gradient"/>
    <radialGradient id="radial-gradient-5" cx="1729.38" cy="-890.26" fx="1729.38" fy="-890.26" r="104.86" gradientTransform="translate(-704.86 1793.59) rotate(-40)" xlink:href="#radial-gradient"/>
    <radialGradient id="radial-gradient-6" cx="1729.38" cy="-890.26" fx="1729.38" fy="-890.26" r="104.87" gradientTransform="translate(-1828.86 -425.92) rotate(40)" xlink:href="#radial-gradient"/>
    <radialGradient id="radial-gradient-7" cx="1729.38" cy="-890.26" fx="1729.38" fy="-890.26" r="104.86" gradientTransform="translate(-1870.52 -97.74) rotate(30)" xlink:href="#radial-gradient"/>
    <radialGradient id="radial-gradient-8" cx="1729.38" cy="-890.26" fx="1729.38" fy="-890.26" r="104.86" gradientTransform="translate(-1854.99 234.99) rotate(20.01)" xlink:href="#radial-gradient"/>
    <radialGradient id="radial-gradient-9" cx="1729.38" cy="-890.26" fx="1729.38" fy="-890.26" r="104.87" gradientTransform="translate(-1782.7 562.36) rotate(10.01)" xlink:href="#radial-gradient"/>
    <radialGradient id="radial-gradient-10" cx="1729.38" cy="-890.26" fx="1729.38" fy="-890.26" r="104.87" gradientTransform="translate(-1655.58 874.73) rotate(-.01)" xlink:href="#radial-gradient"/>
    <radialGradient id="radial-gradient-11" cx="1729.38" cy="-890.26" fx="1729.38" fy="-890.26" r="104.86" gradientTransform="translate(-1477.8 1161.7) rotate(-10.02)" xlink:href="#radial-gradient"/>
    <radialGradient id="radial-gradient-12" cx="1729.38" cy="-890.26" fx="1729.38" fy="-890.26" r="104.87" gradientTransform="translate(-1255.48 1414.11) rotate(-19.99)" xlink:href="#radial-gradient"/>
    <radialGradient id="radial-gradient-13" cx="1729.38" cy="-890.27" fx="1729.38" fy="-890.27" r="104.87" gradientTransform="translate(-993.78 1626.1) rotate(-30)" xlink:href="#radial-gradient"/>
    <radialGradient id="radial-gradient-14" cx="1729.38" cy="-890.26" fx="1729.38" fy="-890.26" r="104.87" gradientTransform="translate(-701.23 1790.26) rotate(-40.01)" xlink:href="#radial-gradient"/>
    <radialGradient id="radial-gradient-15" cx="1729.38" cy="-890.27" fx="1729.38" fy="-890.27" r="104.87" gradientTransform="translate(-1755.08 -423.14) rotate(40.01)" xlink:href="#radial-gradient"/>
    <radialGradient id="radial-gradient-16" cx="1729.38" cy="-890.26" fx="1729.38" fy="-890.26" r="104.86" gradientTransform="translate(-1804.65 -88.94) rotate(30)" xlink:href="#radial-gradient"/>
    <radialGradient id="radial-gradient-17" cx="1729.38" cy="-890.26" fx="1729.38" fy="-890.26" r="104.87" gradientTransform="translate(-1797.67 248.42) rotate(19.98)" xlink:href="#radial-gradient"/>
    <radialGradient id="radial-gradient-18" cx="1729.38" cy="-890.26" fx="1729.38" fy="-890.26" r="104.87" gradientTransform="translate(-1734.63 577.52) rotate(10.01)" xlink:href="#radial-gradient"/>
    <radialGradient id="radial-gradient-19" cx="1729.38" cy="-890.26" fx="1729.38" fy="-890.26" r="104.87" gradientTransform="translate(-546.77 1852.53) rotate(-45)" xlink:href="#radial-gradient"/>
  </defs>
  <g id="OBJECTS">
    <g>
      <path class="cls-2" d="m67.23,72.06c-9.8,7.43-23.82,6.68-32.76-2.26-8.94-8.94-9.69-22.96-2.26-32.76L12.93,17.75c-17.98,20.49-17.21,51.7,2.34,71.25,19.55,19.55,50.76,20.33,71.25,2.34l-19.29-19.29Z"/>
      <rect class="cls-11" x="23.15" y="11.25" width="3.44" height="27.16" transform="translate(-10.27 24.86) rotate(-45)"/>
      <rect class="cls-8" x="28.31" y="6.93" width="3.44" height="27.16" transform="translate(-6.33 20.94) rotate(-35.01)"/>
      <rect class="cls-18" x="34.13" y="3.57" width="3.44" height="27.16" transform="translate(-3.89 16.77) rotate(-25.02)"/>
      <rect class="cls-20" x="40.45" y="1.27" width="3.44" height="27.16" transform="translate(-2.41 11.43) rotate(-15.01)"/>
      <rect class="cls-10" x="47.08" y=".1" width="3.44" height="27.16" transform="translate(-1.01 4.31) rotate(-5)"/>
      <rect class="cls-15" x="41.94" y="11.96" width="27.16" height="3.44" transform="translate(37.05 67.79) rotate(-85)"/>
      <rect class="cls-9" x="48.57" y="13.13" width="27.16" height="3.44" transform="translate(31.72 71.03) rotate(-75)"/>
      <rect class="cls-3" x="54.89" y="15.43" width="27.16" height="3.44" transform="translate(24 71.96) rotate(-65.01)"/>
      <rect class="cls-17" x="60.71" y="18.79" width="27.16" height="3.44" transform="translate(14.88 69.61) rotate(-55.01)"/>
      <rect class="cls-14" x="65.86" y="23.12" width="27.16" height="3.44" transform="translate(5.7 63.43) rotate(-44.99)"/>
      <rect class="cls-19" x="70.19" y="28.27" width="27.16" height="3.44" transform="translate(-2.06 53.45) rotate(-34.98)"/>
      <rect class="cls-5" x="73.55" y="34.09" width="27.16" height="3.44" transform="translate(-6.97 40.2) rotate(-25.01)"/>
      <rect class="cls-4" x="75.85" y="40.41" width="27.16" height="3.44" transform="translate(-7.86 24.59) rotate(-15)"/>
      <rect class="cls-12" x="77.02" y="47.04" width="27.16" height="3.44" transform="translate(-3.9 8.06) rotate(-4.99)"/>
      <rect class="cls-16" x="88.88" y="41.9" width="3.44" height="27.16" transform="translate(27.45 140.91) rotate(-85.01)"/>
      <rect class="cls-1" x="87.71" y="48.53" width="3.44" height="27.16" transform="translate(6.29 132.41) rotate(-75)"/>
      <rect class="cls-7" x="85.41" y="54.85" width="3.43" height="27.16" transform="translate(-11.72 118.45) rotate(-64.98)"/>
      <rect class="cls-13" x="82.05" y="60.67" width="3.43" height="27.16" transform="translate(-25.1 100.29) rotate(-55.01)"/>
      <polygon class="cls-6" points="71.06 68.59 68.63 71.02 87.83 90.22 90.26 87.79 71.06 68.59"/>
    </g>
  </g>
</svg>