<?xml version="1.0" encoding="utf-8"?>
<!-- Generator: Adobe Illustrator 28.0.0, SVG Export Plug-In . SVG Version: 6.00 Build 0)  -->
<svg version="1.1" id="Livello_1" xmlns="http://www.w3.org/2000/svg" xmlns:xlink="http://www.w3.org/1999/xlink" x="0px" y="0px"
	 viewBox="0 0 841.9 566.9" style="enable-background:new 0 0 841.9 566.9;" xml:space="preserve">
<style type="text/css">
	.st0{fill:url(#SVGID_1_);}
	.st1{fill:#50AF3C;}
</style>
<g id="graphics">
	
		<radialGradient id="SVGID_1_" cx="427.9453" cy="294.6517" r="118.0558" gradientTransform="matrix(1 0 0 -1 0 567.89)" gradientUnits="userSpaceOnUse">
		<stop  offset="1.740000e-02" style="stop-color:#8DC63F"/>
		<stop  offset="1" style="stop-color:#009444"/>
	</radialGradient>
	<path class="st0" d="M487.1,242.6c-27.6-47.8-57.4-84.3-64.2-83.5c-6.8-0.9-36.6,35.7-64.2,83.5c-27.6,47.8-42.9,89.3-38.8,94.8
		c1.5,3.6,17.2,7.8,40.9,10.7c7,0.9,14.8,1.6,23.1,2.2c17.7,1.3,32.8-0.5,43.3-13.3c12.8-15.7,12.9-41.8-1.4-63.6
		c-0.7-1.1-2.4-0.4-2.3,0.9c0.9,6.4,1.1,15.1-0.7,25.1c-2.1,11.6-10.6,20.7-22.2,20.7c-9.5,0-17.6-5.9-20.8-14.3
		c-3.4-8.8-0.2-19.4,3.7-29.7c10.4-27.8,31-52.1,36.1-57.5c2-2.1,4.3-2.2,6.5,0c7,7.3,42.2,49.2,42.2,87.6
		c0,18.4-10.9,34.3-26.6,41.5c-1.8,0.8-1.3,3.6,0.7,3.5c46-1.6,81-8.3,83.4-13.9C530,332,514.7,290.4,487.1,242.6z"/>
</g>
<g>
	<path d="M208,363.6h33.2v7H228v43h-7.2v-43H208V363.6z"/>
	<path d="M252.5,414.2c-3.3,0-6.2-0.7-8.5-2c-2.4-1.3-4.2-3.1-5.5-5.4c-1.3-2.3-1.9-4.9-1.9-7.9c0-2.8,0.7-5.4,2.2-7.7
		c1.4-2.3,3.4-4.2,5.8-5.5c2.4-1.4,5.1-2.1,8.1-2.1c3.9,0,7.1,1.1,9.6,3.3c2.5,2.2,4.3,5.4,5.1,9.4l-22.5,7.8
		c0.8,1.3,1.9,2.4,3.3,3.1c1.4,0.7,2.9,1.1,4.5,1.1c1.2,0,2.4-0.2,3.6-0.7c1.1-0.4,2.2-1,3.2-1.8l3.2,5.2c-1.5,1-3.1,1.7-4.9,2.3
		C256,413.9,254.3,414.2,252.5,414.2z M243.5,399.9l16-5.9c-0.6-1.3-1.5-2.5-2.7-3.5c-1.2-1-2.7-1.5-4.7-1.5c-2.6,0-4.7,0.9-6.3,2.7
		c-1.6,1.8-2.4,4-2.4,6.8C243.5,399,243.5,399.5,243.5,399.9z"/>
	<path d="M277.7,384.7l0.6,5.2c1.1-2,2.5-3.6,4.4-4.7c1.9-1.1,4.1-1.7,6.5-1.7c2.3,0,4.3,0.5,5.9,1.6c1.6,1.1,2.6,2.6,3,4.5
		c1.2-1.9,2.7-3.4,4.5-4.5c1.8-1.1,3.8-1.6,5.9-1.6c2.8,0,5.1,0.8,6.7,2.4c1.7,1.6,2.5,3.7,2.5,6.2v21.3h-6.9v-18.7
		c0-1.5-0.4-2.7-1-3.6c-0.6-1-1.7-1.5-3.3-1.6c-1.7,0-3.1,0.5-4.4,1.5c-1.3,1-2.2,2.3-3,3.9c-0.7,1.6-1.1,3.3-1.1,5.2v13.4h-7v-18.7
		c0-1.5-0.4-2.7-1.1-3.6c-0.7-1-1.8-1.5-3.4-1.6c-1.6,0-3,0.5-4.3,1.5c-1.3,1-2.2,2.3-2.9,4c-0.7,1.6-1,3.4-1,5.2v13.3h-7v-28.8
		H277.7z"/>
	<path d="M342.2,414.2c-2,0-3.9-0.4-5.8-1.2c-1.8-0.8-3.3-2-4.5-3.5v17.9h-7v-43.1h6l0.6,4.7c1.4-1.6,3.1-2.8,5.1-3.9
		c2-1,4.3-1.5,6.8-1.5c2.7,0,5.1,0.6,7.3,1.9c2.2,1.3,3.9,3.1,5.1,5.4c1.2,2.3,1.9,5,1.9,8.2c0,3.1-0.7,5.8-2,8.1
		c-1.4,2.3-3.2,4-5.5,5.2S345.2,414.2,342.2,414.2z M340.8,408.7c1.8,0,3.4-0.4,4.9-1.2c1.5-0.8,2.7-2,3.6-3.4
		c0.9-1.4,1.3-3.1,1.3-4.9c0-1.9-0.4-3.6-1.2-5c-0.8-1.5-2-2.6-3.4-3.4c-1.4-0.8-3-1.2-4.8-1.2c-2.4,0-4.4,0.6-6,1.9
		c-1.6,1.3-2.7,3-3.3,5.1v5.2c0.4,2.1,1.4,3.8,3,5.1C336.6,408,338.5,408.7,340.8,408.7z"/>
	<path d="M362.4,360h7v53.5h-7V360z"/>
	<path d="M388.6,414.2c-2.7,0-5.2-0.6-7.4-1.7c-2.2-1.1-3.9-2.8-5.2-5.1c-1.3-2.2-1.9-5-1.9-8.3c0-3.2,0.7-6,2-8.3
		c1.4-2.3,3.1-4.1,5.4-5.4c2.2-1.3,4.6-1.9,7.3-1.9c2.7,0,4.9,0.5,6.6,1.6c1.7,1.1,3.1,2.4,4.1,3.9l0.5-4.3h6.4v28.8h-7V409
		c-0.5,0.6-1.3,1.4-2.3,2.2c-1,0.8-2.2,1.5-3.6,2.1C392,413.9,390.4,414.2,388.6,414.2z M390.4,408.5c2.3,0,4.2-0.6,5.8-1.8
		c1.6-1.2,2.6-2.9,3.1-5v-5.9c-0.6-1.9-1.7-3.4-3.3-4.7c-1.7-1.2-3.6-1.9-5.8-1.9c-1.7,0-3.2,0.4-4.5,1.2c-1.4,0.8-2.5,1.9-3.3,3.4
		c-0.8,1.4-1.2,3.1-1.2,5c0,1.8,0.4,3.5,1.3,5c0.8,1.5,2,2.6,3.4,3.5C387.2,408,388.8,408.5,390.4,408.5z"/>
	<path d="M416.2,372.1h7v12.7h7.7v5.4h-7.7v23.3h-7v-23.3h-5.1v-5.4h5.1V372.1z"/>
	<path d="M448.4,414.2c-3.3,0-6.1-0.7-8.5-2s-4.2-3.1-5.5-5.4c-1.3-2.3-1.9-4.9-1.9-7.9c0-2.8,0.7-5.4,2.2-7.7
		c1.4-2.3,3.4-4.2,5.8-5.5c2.4-1.4,5.1-2.1,8.1-2.1c3.9,0,7.1,1.1,9.6,3.3c2.5,2.2,4.3,5.4,5.1,9.4l-22.5,7.8
		c0.8,1.3,1.9,2.4,3.3,3.1c1.4,0.7,2.9,1.1,4.5,1.1c1.2,0,2.4-0.2,3.6-0.7c1.1-0.4,2.2-1,3.2-1.8l3.2,5.2c-1.5,1-3.1,1.7-4.9,2.3
		C451.9,413.9,450.1,414.2,448.4,414.2z M439.4,399.9l16-5.9c-0.6-1.3-1.5-2.5-2.6-3.5c-1.2-1-2.7-1.5-4.7-1.5
		c-2.6,0-4.7,0.9-6.3,2.7c-1.6,1.8-2.4,4-2.4,6.8C439.3,399,439.3,399.5,439.4,399.9z"/>
	<path class="st1" d="M513.5,409.1c-0.9,0.8-2.3,1.6-4.2,2.3c-1.9,0.8-3.9,1.4-6,1.9c-2.2,0.5-4.2,0.7-6.1,0.7
		c-5.3,0-9.9-1.1-13.8-3.2s-6.9-5-9.1-8.7c-2.1-3.7-3.2-7.8-3.2-12.5c0-4.3,0.7-8.1,2-11.4c1.4-3.3,3.2-6.1,5.6-8.3
		c2.4-2.2,5.1-4,8.2-5.1c3.1-1.2,6.3-1.8,9.7-1.8c3,0,5.7,0.3,8.3,1c2.5,0.7,4.7,1.6,6.6,2.6l-2.4,6.7c-0.9-0.6-2.1-1.1-3.4-1.5
		c-1.4-0.5-2.8-0.9-4.2-1.1c-1.4-0.3-2.8-0.4-4-0.4c-3.9,0-7.2,0.8-10.1,2.3s-5,3.7-6.6,6.5c-1.6,2.8-2.3,6.1-2.3,10
		c0,3.5,0.8,6.6,2.4,9.3c1.6,2.7,3.8,4.8,6.6,6.3s6.1,2.3,9.8,2.3c1.7,0,3.3-0.2,4.9-0.5c1.6-0.3,2.9-0.8,4-1.4v-9.2h-9.7v-7h17
		V409.1z"/>
	<path class="st1" d="M526.9,384.7l0.6,6.8c0.8-1.7,1.9-3.1,3.3-4.3s2.8-2.1,4.3-2.8c1.5-0.6,2.8-1,3.8-1l-0.3,6.9
		c-2.2-0.1-4.1,0.3-5.7,1.2s-2.9,2.2-3.8,3.9c-0.9,1.6-1.4,3.3-1.4,5.2v12.8h-7v-28.8H526.9z"/>
	<path class="st1" d="M555.4,414.2c-3.3,0-6.2-0.7-8.5-2c-2.4-1.3-4.2-3.1-5.5-5.4c-1.3-2.3-1.9-4.9-1.9-7.9c0-2.8,0.7-5.4,2.2-7.7
		c1.4-2.3,3.4-4.2,5.8-5.5c2.4-1.4,5.1-2.1,8.1-2.1c3.9,0,7.1,1.1,9.6,3.3c2.5,2.2,4.3,5.4,5.1,9.4l-22.5,7.8
		c0.8,1.3,1.9,2.4,3.3,3.1c1.4,0.7,2.9,1.1,4.5,1.1c1.2,0,2.4-0.2,3.6-0.7c1.1-0.4,2.2-1,3.2-1.8l3.2,5.2c-1.5,1-3.1,1.7-4.9,2.3
		C558.9,413.9,557.2,414.2,555.4,414.2z M546.4,399.9l16-5.9c-0.6-1.3-1.5-2.5-2.7-3.5c-1.2-1-2.7-1.5-4.7-1.5
		c-2.6,0-4.7,0.9-6.3,2.7c-1.6,1.8-2.4,4-2.4,6.8C546.3,399,546.4,399.5,546.4,399.9z"/>
	<path class="st1" d="M587.8,414.2c-3.3,0-6.2-0.7-8.5-2c-2.4-1.3-4.2-3.1-5.5-5.4c-1.3-2.3-1.9-4.9-1.9-7.9c0-2.8,0.7-5.4,2.2-7.7
		c1.4-2.3,3.4-4.2,5.8-5.5c2.4-1.4,5.1-2.1,8.1-2.1c3.9,0,7.1,1.1,9.6,3.3c2.5,2.2,4.3,5.4,5.1,9.4l-22.5,7.8
		c0.8,1.3,1.9,2.4,3.3,3.1c1.4,0.7,2.9,1.1,4.5,1.1c1.2,0,2.4-0.2,3.6-0.7c1.1-0.4,2.2-1,3.2-1.8l3.2,5.2c-1.5,1-3.1,1.7-4.9,2.3
		C591.3,413.9,589.6,414.2,587.8,414.2z M578.8,399.9l16-5.9c-0.6-1.3-1.5-2.5-2.7-3.5c-1.2-1-2.7-1.5-4.7-1.5
		c-2.6,0-4.7,0.9-6.3,2.7c-1.6,1.8-2.4,4-2.4,6.8C578.8,399,578.8,399.5,578.8,399.9z"/>
	<path class="st1" d="M613,384.7l0.5,5.4c1-2,2.5-3.5,4.5-4.7c2-1.2,4.4-1.8,7-1.8c2.7,0,4.9,0.8,6.7,2.4c1.7,1.6,2.6,3.7,2.7,6.2
		v21.3h-7v-18.9c0-1.5-0.5-2.7-1.3-3.6c-0.8-0.9-2.1-1.4-3.9-1.5c-2.4,0-4.5,1-6.1,3c-1.6,2-2.4,4.6-2.4,7.8v13.1h-7v-28.8H613z"/>
</g>
</svg>
