<?xml version="1.0" encoding="UTF-8"?>
<svg id="Livello_2" data-name="Livello 2" xmlns="http://www.w3.org/2000/svg" viewBox="0 0 42.9 42.19">
  <defs>
    <style>
      .cls-1 {
        fill: #fff;
        stroke-width: 0px;
      }
    </style>
  </defs>
  <g id="PRINT1">
    <path class="cls-1" d="m21.45,42.19c-1.51,0-2.89-.76-3.7-2.03L.69,13.26c-.87-1.37-.92-3.04-.14-4.46.78-1.42,2.22-2.27,3.84-2.27h11.96c.52,0,.94.42.94.94s-.42.94-.94.94H4.39c-.92,0-1.74.48-2.19,1.29-.45.81-.42,1.76.08,2.54l17.06,26.9c.46.73,1.25,1.16,2.11,1.16s1.65-.43,2.11-1.16l17.06-26.9c.5-.78.53-1.73.08-2.54-.45-.81-1.26-1.29-2.19-1.29h-9.92c-.52,0-.94-.42-.94-.94s.42-.94.94-.94h9.92c1.62,0,3.06.85,3.84,2.27.78,1.42.73,3.09-.14,4.46l-17.06,26.9c-.81,1.27-2.19,2.03-3.7,2.03Zm-.35-8.38l10.67-16.54h0c.29-.45.31-1.03.06-1.5-.26-.47-.75-.77-1.3-.77h-4.16V1.48c0-.66-.43-1.23-1.06-1.41-.63-.19-1.3.06-1.66.61l-10.67,16.54c-.29.45-.31,1.03-.06,1.5.26.47.75.77,1.29.77h4.16v13.52c0,.66.43,1.23,1.06,1.41.14.04.28.06.42.06.49,0,.95-.25,1.23-.68Zm3.35-30.83v12.2c0,.95.78,1.73,1.73,1.73h3.54l-9.42,14.59v-12.2c0-.95-.78-1.73-1.73-1.73h-3.54L24.46,2.98Z"/>
  </g>
</svg>