<?xml version="1.0" encoding="utf-8"?>
<!-- Generator: Adobe Illustrator 27.7.0, SVG Export Plug-In . SVG Version: 6.00 Build 0)  -->
<svg version="1.1" id="Livello_1" xmlns="http://www.w3.org/2000/svg" xmlns:xlink="http://www.w3.org/1999/xlink" x="0px" y="0px"
	 viewBox="0 0 100 125" style="enable-background:new 0 0 100 125;" xml:space="preserve">
<style type="text/css">
	.st0{fill:#FFFFFF;}
</style>
<g>
	<path class="st0" d="M93.8,5.7H6.2c-1.3,0-2.4,1.1-2.4,2.4v6.5c0,1.3,1.1,2.4,2.4,2.4h2.7v55.3c0,1.3,1.1,2.4,2.4,2.4h36.3v7.5
		c-2.2,0.9-3.8,3.1-3.8,5.7c0,3.4,2.8,6.2,6.2,6.2s6.2-2.8,6.2-6.2c0-2.6-1.6-4.8-3.8-5.7v-7.5h36.3c1.3,0,2.4-1.1,2.4-2.4V17.1h2.6
		c1.3,0,2.4-1.1,2.4-2.4V8.1C96.2,6.8,95.1,5.7,93.8,5.7z M86.3,70H13.7V17.1h72.6V70z"/>
	<path class="st0" d="M35.9,42.6c0,4.7-3.8,8.5-8.5,8.5l0,0c-4.7,0-8.5-3.8-8.5-8.5l0,0c0-4.7,3.8-8.5,8.5-8.5l0,0
		C32.1,34.1,35.9,37.9,35.9,42.6L35.9,42.6z"/>
	<path class="st0" d="M81.1,49.2c0,0.9-0.7,1.6-1.6,1.6H66.2c-0.9,0-1.6-0.7-1.6-1.6V36c0-0.9,0.7-1.6,1.6-1.6h13.2
		c0.9,0,1.6,0.7,1.6,1.6L81.1,49.2L81.1,49.2z"/>
	<path class="st0" d="M59.2,49.8c0.8,0.8,0.5,1.4-0.6,1.4H44.4c-1.1,0-2-0.9-2-2V35c0-1.1,0.6-1.3,1.4-0.6L59.2,49.8z"/>
</g>
</svg>
