<?xml version="1.0" encoding="utf-8"?>
<!-- Generator: Adobe Illustrator 27.7.0, SVG Export Plug-In . SVG Version: 6.00 Build 0)  -->
<svg version="1.1" id="Livello_1" xmlns="http://www.w3.org/2000/svg" xmlns:xlink="http://www.w3.org/1999/xlink" x="0px" y="0px"
	 viewBox="0 0 1000 1250" style="enable-background:new 0 0 1000 1250;" xml:space="preserve">
<style type="text/css">
	.st0{fill:#FFFFFF;}
</style>
<g>
	<path class="st0" d="M478,479c39,0,74,16,99,41c26,26,41,61,41,99c0,39-15,74-41,99c-25,26-60,41-99,41c-38,0-73-15-99-41
		c-25-25-41-60-41-99c0-38,16-73,41-99C405,495,440,479,478,479z M518,580c-10-10-24-16-40-16c-15,0-29,6-39,16s-16,24-16,39
		c0,16,6,29,16,40c10,10,24,16,39,16c16,0,30-6,40-16c10-11,16-24,16-40C534,604,528,590,518,580z"/>
	<path class="st0" d="M407,241c31,0,58,12,78,32s32,47,32,78c0,30-12,58-32,77c-20,20-47,33-78,33c-30,0-58-13-77-33
		c-20-19-33-47-33-77c0-31,13-58,33-78C349,253,377,241,407,241z M438,320c-8-8-19-13-31-13s-23,5-30,13c-8,8-13,19-13,31
		s5,23,13,31c7,7,18,12,30,12s23-5,31-12c8-8,13-19,13-31S446,328,438,320z"/>
	<path class="st0" d="M638,340c18,0,34,7,46,19c11,11,19,28,19,46s-8,34-19,46c-12,11-28,19-46,19s-35-8-46-19c-12-12-19-28-19-46
		s7-35,19-46C603,347,620,340,638,340z M656,386c-5-4-11-7-18-7s-14,3-19,7c-4,5-7,12-7,19s3,13,7,18c5,4,12,7,19,7s13-3,18-7
		c5-5,7-11,7-18S661,391,656,386z"/>
</g>
</svg>
