<?xml version="1.0" encoding="utf-8"?>
<!-- Generator: Adobe Illustrator 27.7.0, SVG Export Plug-In . SVG Version: 6.00 Build 0)  -->
<svg version="1.1" id="Livello_1" xmlns="http://www.w3.org/2000/svg" xmlns:xlink="http://www.w3.org/1999/xlink" x="0px" y="0px"
	 viewBox="0 0 32 40" style="enable-background:new 0 0 32 40;" xml:space="preserve">
<style type="text/css">
	.st0{fill:#FFFFFE;}
</style>
<g>
	<path class="st0" d="M14.8,17c0,0.4-0.3,0.8-0.8,0.8H9c-0.4,0-0.8-0.3-0.8-0.8s0.3-0.8,0.8-0.8h5C14.4,16.2,14.8,16.6,14.8,17z
		 M29.8,20c0,0.4-0.3,0.8-0.8,0.8h-9.1l1.8,8.1c0.1,0.4-0.2,0.8-0.6,0.9c-0.1,0-0.1,0-0.2,0c-0.3,0-0.7-0.2-0.7-0.6l-1.9-8.4h-1.6
		V26c0,0.4-0.3,0.8-0.8,0.8s-0.8-0.3-0.8-0.8v-5.2h-1.6l-1.9,8.4c-0.1,0.3-0.4,0.6-0.7,0.6c-0.1,0-0.1,0-0.2,0
		c-0.4-0.1-0.7-0.5-0.6-0.9l1.8-8.1H3c-0.4,0-0.8-0.3-0.8-0.8s0.3-0.8,0.8-0.8h1.2V3c0-0.4,0.3-0.8,0.8-0.8h22
		c0.4,0,0.8,0.3,0.8,0.8v16.2H29C29.4,19.2,29.8,19.6,29.8,20z M26.2,19.2V3.7H5.8v15.5H26.2z"/>
</g>
</svg>
