<?xml version="1.0" encoding="utf-8"?>
<!-- Generator: Adobe Illustrator 27.7.0, SVG Export Plug-In . SVG Version: 6.00 Build 0)  -->
<svg version="1.1" id="Livello_1" xmlns="http://www.w3.org/2000/svg" xmlns:xlink="http://www.w3.org/1999/xlink" x="0px" y="0px"
	 viewBox="0 0 110 135" style="enable-background:new 0 0 110 135;" xml:space="preserve">
<style type="text/css">
	.st0{fill-rule:evenodd;clip-rule:evenodd;}
</style>
<path class="st0" d="M70.7,81.6c-6,4.8-13.6,7.6-21.9,7.6c-19.6,0-35.4-15.9-35.4-35.4s15.9-35.4,35.4-35.4s35.4,15.9,35.4,35.4
	c0,8.3-2.8,15.9-7.6,21.9l18.9,18.9c1.6,1.6,1.6,4.3,0,5.9c-1.6,1.6-4.3,1.6-5.9,0L70.7,81.6z M75.8,53.8c0,15-12.1,27.1-27.1,27.1
	S21.7,68.7,21.7,53.8s12.1-27.1,27.1-27.1S75.8,38.8,75.8,53.8z"/>
</svg>
