<?xml version="1.0" encoding="utf-8"?>
<!-- Generator: Adobe Illustrator 27.7.0, SVG Export Plug-In . SVG Version: 6.00 Build 0)  -->
<svg version="1.1" id="Livello_1" xmlns="http://www.w3.org/2000/svg" xmlns:xlink="http://www.w3.org/1999/xlink" x="0px" y="0px"
	 viewBox="0 0 100 125" style="enable-background:new 0 0 100 125;" xml:space="preserve">
<style type="text/css">
	.st0{fill-rule:evenodd;clip-rule:evenodd;}
</style>
<path class="st0" d="M15.1,36.5v27c0,11.8,9.6,21.4,21.4,21.4h27c11.8,0,21.4-9.6,21.4-21.4v-27c0-11.8-9.6-21.4-21.4-21.4h-27
	C24.7,15.1,15.1,24.7,15.1,36.5z M22,37.5C22,28.9,28.9,22,37.5,22h25.1C71.1,22,78,28.9,78,37.5v25.1C78,71.1,71.1,78,62.5,78H37.5
	C28.9,78,22,71.1,22,62.5C22,62.5,22,37.5,22,37.5z M40.4,50c0,5.3,4.3,9.6,9.6,9.6s9.6-4.3,9.6-9.6s-4.3-9.6-9.6-9.6
	S40.4,44.7,40.4,50z M34.1,50c0-8.8,7.1-15.9,15.9-15.9S65.9,41.2,65.9,50S58.8,65.9,50,65.9S34.1,58.8,34.1,50z M67.9,27.7
	c2.3,0,4.1,1.8,4.1,4.1c0,2.3-1.8,4.1-4.1,4.1c-2.3,0-4.1-1.8-4.1-4.1C63.8,29.6,65.7,27.7,67.9,27.7z"/>
</svg>
