<?xml version="1.0" encoding="utf-8"?>
<!-- Generator: Adobe Illustrator 27.7.0, SVG Export Plug-In . SVG Version: 6.00 Build 0)  -->
<svg version="1.1" id="Livello_1" xmlns="http://www.w3.org/2000/svg" xmlns:xlink="http://www.w3.org/1999/xlink" x="0px" y="0px"
	 viewBox="0 0 110 135" style="enable-background:new 0 0 110 135;" xml:space="preserve">
<path d="M66.4,103.5c0.8,0,1.5,0.7,1.5,1.5s-0.7,1.5-1.5,1.5H18.8c-2.8,0-5.4-1.2-7.3-3c-1.9-1.9-3-4.5-3-7.3V23.8
	c0-2.8,1.2-5.4,3-7.3l0.1-0.1c1.9-1.8,4.4-3,7.2-3h4.2c0.8,0,1.5,0.7,1.5,1.5s-0.7,1.5-1.5,1.5h-4.2c-2,0-3.8,0.8-5.1,2.1
	c-1.4,1.4-2.2,3.2-2.2,5.2v72.3c0,2,0.8,3.9,2.2,5.2c1.3,1.3,3.2,2.1,5.2,2.1L66.4,103.5L66.4,103.5z M56.2,51l19-23.1
	c0.3-0.4,0.7-0.6,1.2-0.6h8.4c0.3,0,0.7,0.1,0.9,0.3c0.6,0.5,0.7,1.5,0.2,2.1L61.9,59.1L84,90.3c0.5,0.7,0.3,1.6-0.4,2.1
	c-0.3,0.2-0.6,0.3-0.9,0.3l-11.5,0c-0.5,0-1-0.3-1.3-0.7L53.8,69L34.8,92c-0.3,0.4-0.7,0.6-1.2,0.6h-8.4c-0.3,0-0.7-0.1-0.9-0.3
	c-0.6-0.5-0.7-1.5-0.2-2.1l24.1-29.3L26,29.7c-0.5-0.7-0.3-1.6,0.4-2.1c0.3-0.2,0.6-0.3,0.9-0.3h11.5c0.5,0,1,0.3,1.3,0.7L56.2,51
	L56.2,51z M43.6,16.5c-0.8,0-1.5-0.7-1.5-1.5s0.7-1.5,1.5-1.5h47.5c2.8,0,5.4,1.2,7.3,3l0.1,0.1c1.8,1.9,3,4.4,3,7.2v72.3
	c0,2.8-1.2,5.4-3,7.3c-1.9,1.9-4.5,3-7.3,3H87c-0.8,0-1.5-0.7-1.5-1.5s0.7-1.5,1.5-1.5h4.2c2,0,3.9-0.8,5.2-2.1
	c1.3-1.3,2.2-3.2,2.2-5.2V23.8c0-2-0.8-3.8-2.1-5.1c-1.4-1.4-3.2-2.2-5.2-2.2L43.6,16.5L43.6,16.5z"/>
</svg>
