<?xml version="1.0" encoding="utf-8"?>
<!-- Generator: Adobe Illustrator 27.7.0, SVG Export Plug-In . SVG Version: 6.00 Build 0)  -->
<svg version="1.1" id="Livello_1" xmlns="http://www.w3.org/2000/svg" xmlns:xlink="http://www.w3.org/1999/xlink" x="0px" y="0px"
	 viewBox="0 0 110 135" style="enable-background:new 0 0 110 135;" xml:space="preserve">
<style type="text/css">
	.st0{fill-rule:evenodd;clip-rule:evenodd;}
</style>
<g>
	<path class="st0" d="M62.7,95.9c-0.7,3.6-3.9,6.2-7.7,6.2s-6.9-2.7-7.7-6.2H62.7z"/>
	<path class="st0" d="M20.6,92.8h68.8c0.9,0,1.6-0.7,1.6-1.6V85c0-0.9-0.7-1.6-1.6-1.6H20.6c-0.9,0-1.6,0.7-1.6,1.6v6.2
		C19.1,92.1,19.8,92.8,20.6,92.8z"/>
	<path class="st0" d="M84.2,80.3H25.8c3.6-2.6,5.8-6.9,5.8-11.4V47.5c0-10.9,7.5-20.1,17.6-22.7c0.7-0.2,1.2-0.8,1.2-1.5v-3.9
		c0-0.9,0.7-1.6,1.6-1.6h6.2c0.9,0,1.6,0.7,1.6,1.6v3.9c0,0.7,0.5,1.3,1.2,1.5C71,27.4,78.4,36.6,78.4,47.5v21.4
		C78.4,73.4,80.6,77.7,84.2,80.3L84.2,80.3z M72.2,47.5c0-4.6-1.8-8.9-5-12.2s-7.6-5-12.2-5c-0.9,0-1.6,0.7-1.6,1.6s0.7,1.6,1.6,1.6
		c3.7,0,7.3,1.5,9.9,4.1c2.6,2.6,4.1,6.2,4.1,9.9c0,0.9,0.7,1.6,1.6,1.6S72.2,48.4,72.2,47.5L72.2,47.5z"/>
</g>
</svg>
