<?xml version="1.0" encoding="UTF-8"?>
<svg id="Livello_2" data-name="Livello 2" xmlns="http://www.w3.org/2000/svg" viewBox="0 0 174.6 180.37">
  <defs>
    <style>
      .cls-1 {
        letter-spacing: 0em;
      }

      .cls-2 {
        letter-spacing: 0em;
      }

      .cls-3 {
        letter-spacing: .01em;
      }

      .cls-4, .cls-5, .cls-6 {
        fill-rule: evenodd;
        stroke-width: 0px;
      }

      .cls-4, .cls-7, .cls-8 {
        fill: #41287b;
      }

      .cls-5 {
        fill: #74b5c3;
      }

      .cls-7 {
        font-size: 27.86px;
      }

      .cls-7, .cls-8 {
        font-family: Gotham-Black, 'Gotham Black';
        font-weight: 800;
      }

      .cls-6 {
        fill: #fff;
      }

      .cls-8 {
        font-size: 46.89px;
      }

      .cls-9 {
        letter-spacing: .08em;
      }
    </style>
  </defs>
  <g id="OBJECTS">
    <g>
      <g>
        <path class="cls-4" d="m90.32,102.28c-7.12,3.77-14.24,7.53-21.36,11.3-1.65.87-3.6.56-4.89-.78-1.29-1.34-1.53-3.3-.6-4.92l8.01-13.87-29.13-15.33c-1.39-.73-2.2-2.08-2.2-3.65V27.56c0-1.57.81-2.92,2.2-3.65L86.86.49c1.24-.65,2.6-.65,3.84,0l44.52,23.42c1.39.73,2.2,2.08,2.2,3.65v47.48c0,1.57-.81,2.92-2.2,3.65l-44.52,23.42c-.12.06-.25.12-.37.17h0Zm7.7-83.97v2.33l21,11.05c1.39.73,2.2,2.08,2.2,3.65s-.81,2.91-2.2,3.65l-21,11.05v2.33l27.04-14.22v-5.6l-27.04-14.22h0Zm-18.48,34.05v-2.33l-21-11.05c-1.39-.73-2.2-2.08-2.2-3.65s.81-2.91,2.2-3.65l21-11.05v-2.33l-27.04,14.22v5.6l27.04,14.22Z"/>
        <polygon class="cls-6" points="129.17 30.04 108.98 19.42 93.9 11.48 93.9 23.12 117.1 35.33 93.9 47.54 93.9 59.17 108.98 51.24 129.17 40.62 129.17 30.04"/>
        <polygon class="cls-5" points="83.65 23.12 83.65 11.48 68.57 19.42 48.37 30.04 48.37 40.62 68.57 51.24 83.65 59.17 83.65 47.54 60.45 35.33 83.65 23.12"/>
      </g>
      <text class="cls-8" transform="translate(0 151.06)"><tspan class="cls-2" x="0" y="0">C</tspan><tspan class="cls-3" x="34.34" y="0">odin</tspan><tspan x="142.9" y="0">g</tspan></text>
      <text class="cls-7" transform="translate(38.92 175.55)"><tspan class="cls-9" x="0" y="0">Cam</tspan><tspan class="cls-1" x="70.64" y="0">p</tspan></text>
    </g>
  </g>
</svg>